<svg aria-roledescription="er" viewBox="-135.1196517944336 0 518.7556457519531 1444" style="max-width: 518.756px; background-color: white;" xmlns:xlink="http://www.w3.org/1999/xlink" xmlns="http://www.w3.org/2000/svg" width="100%" id="mermaid-1673529481423"><style>#mermaid-1673529481423{font-family:"trebuchet ms",verdana,arial,sans-serif;font-size:16px;fill:#000000;}#mermaid-1673529481423 .error-icon{fill:#552222;}#mermaid-1673529481423 .error-text{fill:#552222;stroke:#552222;}#mermaid-1673529481423 .edge-thickness-normal{stroke-width:2px;}#mermaid-1673529481423 .edge-thickness-thick{stroke-width:3.5px;}#mermaid-1673529481423 .edge-pattern-solid{stroke-dasharray:0;}#mermaid-1673529481423 .edge-pattern-dashed{stroke-dasharray:3;}#mermaid-1673529481423 .edge-pattern-dotted{stroke-dasharray:2;}#mermaid-1673529481423 .marker{fill:#666;stroke:#666;}#mermaid-1673529481423 .marker.cross{stroke:#666;}#mermaid-1673529481423 svg{font-family:"trebuchet ms",verdana,arial,sans-serif;font-size:16px;}#mermaid-1673529481423 .entityBox{fill:#eee;stroke:#999;}#mermaid-1673529481423 .attributeBoxOdd{fill:#ffffff;stroke:#999;}#mermaid-1673529481423 .attributeBoxEven{fill:#f2f2f2;stroke:#999;}#mermaid-1673529481423 .relationshipLabelBox{fill:hsl(-160, 0%, 93.3333333333%);opacity:0.7;background-color:hsl(-160, 0%, 93.3333333333%);}#mermaid-1673529481423 .relationshipLabelBox rect{opacity:0.5;}#mermaid-1673529481423 .relationshipLine{stroke:#666;}#mermaid-1673529481423 .entityTitleText{text-anchor:middle;font-size:18px;fill:#000000;}#mermaid-1673529481423 :root{--mermaid-font-family:"trebuchet ms",verdana,arial,sans-serif;}</style><g/><defs><marker orient="auto" markerHeight="18" markerWidth="18" refY="9" refX="0" id="ONLY_ONE_START"><path d="M9,0 L9,18 M15,0 L15,18" fill="none" stroke="gray"/></marker></defs><defs><marker orient="auto" markerHeight="18" markerWidth="18" refY="9" refX="18" id="ONLY_ONE_END"><path d="M3,0 L3,18 M9,0 L9,18" fill="none" stroke="gray"/></marker></defs><defs><marker orient="auto" markerHeight="18" markerWidth="30" refY="9" refX="0" id="ZERO_OR_ONE_START"><circle r="6" cy="9" cx="21" fill="white" stroke="gray"/><path d="M9,0 L9,18" fill="none" stroke="gray"/></marker></defs><defs><marker orient="auto" markerHeight="18" markerWidth="30" refY="9" refX="30" id="ZERO_OR_ONE_END"><circle r="6" cy="9" cx="9" fill="white" stroke="gray"/><path d="M21,0 L21,18" fill="none" stroke="gray"/></marker></defs><defs><marker orient="auto" markerHeight="36" markerWidth="45" refY="18" refX="18" id="ONE_OR_MORE_START"><path d="M0,18 Q 18,0 36,18 Q 18,36 0,18 M42,9 L42,27" fill="none" stroke="gray"/></marker></defs><defs><marker orient="auto" markerHeight="36" markerWidth="45" refY="18" refX="27" id="ONE_OR_MORE_END"><path d="M3,9 L3,27 M9,18 Q27,0 45,18 Q27,36 9,18" fill="none" stroke="gray"/></marker></defs><defs><marker orient="auto" markerHeight="36" markerWidth="57" refY="18" refX="18" id="ZERO_OR_MORE_START"><circle r="6" cy="18" cx="48" fill="white" stroke="gray"/><path d="M0,18 Q18,0 36,18 Q18,36 0,18" fill="none" stroke="gray"/></marker></defs><defs><marker orient="auto" markerHeight="36" markerWidth="57" refY="18" refX="39" id="ZERO_OR_MORE_END"><circle r="6" cy="18" cx="9" fill="white" stroke="gray"/><path d="M21,18 Q39,0 57,18 Q39,36 21,18" fill="none" stroke="gray"/></marker></defs><path style="stroke: gray; fill: none;" marker-start="url(#ONLY_ONE_START)" marker-end="url(#ONE_OR_MORE_END)" d="M82.99015484601475,611L81.78417317693612,619.3333333333334C80.57819150785748,627.6666666666666,78.16622816970023,644.3333333333334,79.62265331638305,661C81.07907846306587,677.6666666666666,86.40389209458876,694.3333333333334,89.06629891035021,702.6666666666666L91.72870572611166,711" class="er relationshipLine"/><path style="stroke: gray; fill: none;" marker-start="url(#ONLY_ONE_START)" marker-end="url(#ONE_OR_MORE_END)" d="M20,500.78989748455524L4.760005950927734,527.4915812371294C-10.479988098144531,554.1932649897035,-40.95997619628906,607.5966324948517,-56.19997024536133,660.3816495807592C-71.4399642944336,713.1666666666666,-71.4399642944336,765.3333333333334,-71.4399642944336,817.5C-71.4399642944336,869.6666666666666,-71.4399642944336,921.8333333333334,-71.4399642944336,965.25C-71.4399642944336,1008.6666666666666,-71.4399642944336,1043.3333333333333,-71.4399642944336,1078C-71.4399642944336,1112.6666666666667,-71.4399642944336,1147.3333333333333,-50.020189921061196,1180.5255844066708C-28.6004155476888,1213.717835480008,14.23913319905599,1245.435670960016,35.65890757242838,1261.29458870002L57.07868194580078,1277.153506440024" class="er relationshipLine"/><path style="stroke: gray; fill: none;" marker-start="url(#ONLY_ONE_START)" marker-end="url(#ONLY_ONE_END)" d="M91.72870572611166,924L89.06629891035021,932.3333333333334C86.40389209458876,940.6666666666666,81.07907846306587,957.3333333333334,82.42308190371467,974C83.76708534436348,990.6666666666666,91.779905857184,1007.3333333333334,95.78631611359425,1015.6666666666666L99.79272637000452,1024" class="er relationshipLine"/><path style="stroke: gray; fill: none;" marker-start="url(#ONLY_ONE_START)" marker-end="url(#ONE_OR_MORE_END)" d="M159.77982393697428,711L162.44223075273572,702.6666666666666C165.10463756849717,694.3333333333334,170.42945120002005,677.6666666666666,171.88587634670287,661C173.3423014933857,644.3333333333334,170.93033815522844,627.6666666666666,169.72435648614982,619.3333333333334L168.5183748170712,611" class="er relationshipLine"/><path style="stroke: gray; fill: none;" marker-start="url(#ONLY_ONE_START)" marker-end="url(#ONE_OR_MORE_END)" d="M99.79272637000452,1132L95.78631611359425,1140.3333333333333C91.779905857184,1148.6666666666667,83.76708534436348,1165.3333333333333,82.61455636649204,1182C81.4620273886206,1198.6666666666667,87.16978994569821,1215.3333333333333,90.02367122423703,1223.6666666666667L92.87755250277584,1232" class="er relationshipLine"/><path style="stroke: gray; fill: none;" marker-start="url(#ONLY_ONE_START)" marker-end="url(#ONLY_ONE_END)" d="M151.71580329308142,1024L155.72221354949167,1015.6666666666666C159.72862380590195,1007.3333333333334,167.74144431872244,990.6666666666666,169.08544775937125,974C170.42945120002005,957.3333333333334,165.10463756849717,940.6666666666666,162.44223075273572,932.3333333333334L159.77982393697428,924" class="er relationshipLine"/><path style="stroke: gray; fill: none;" marker-start="url(#ONLY_ONE_START)" marker-end="url(#ONE_OR_MORE_END)" d="M158.6309771603101,1232L161.4848584388489,1223.6666666666667C164.3387397173877,1215.3333333333333,170.04650227446533,1198.6666666666667,168.89397329659388,1182C167.74144431872244,1165.3333333333333,159.72862380590195,1148.6666666666667,155.72221354949167,1140.3333333333333L151.71580329308142,1132" class="er relationshipLine"/><path style="stroke: gray; fill: none;" marker-start="url(#ONLY_ONE_START)" marker-end="url(#ONE_OR_MORE_END)" d="M194.42984771728516,1277.153506440024L215.84962209065756,1261.29458870002C237.26939646402994,1245.435670960016,280.1089452107747,1213.717835480008,301.52871958414715,1180.5255844066708C322.94849395751953,1147.3333333333333,322.94849395751953,1112.6666666666667,322.94849395751953,1078C322.94849395751953,1043.3333333333333,322.94849395751953,1008.6666666666666,322.94849395751953,965.25C322.94849395751953,921.8333333333334,322.94849395751953,869.6666666666666,322.94849395751953,817.5C322.94849395751953,765.3333333333334,322.94849395751953,713.1666666666666,307.70849990844727,660.3816495807592C292.468505859375,607.5966324948517,261.98851776123047,554.1932649897035,246.7485237121582,527.4915812371294L231.50852966308594,500.78989748455524" class="er relationshipLine"/><g transform="translate(20,20 )" id="entity-Form-a183b040-dd9d-4bbe-a566-63a0206349cb"><rect height="591" width="211.50852966308594" y="0" x="0" class="er entityBox"/><text style="dominant-baseline: middle; text-anchor: middle; font-size: 12px;" transform="translate(105.75426483154297,12)" y="0" x="0" id="text-entity-Form-a183b040-dd9d-4bbe-a566-63a0206349cb" class="er entityLabel">Form</text><rect height="21" width="92.99681091308594" y="24" x="0" class="er attributeBoxOdd"/><text style="dominant-baseline: middle; font-size: 10.2px;" transform="translate(5,34.5)" y="0" x="0" id="text-entity-Form-a183b040-dd9d-4bbe-a566-63a0206349cb-attr-1-type" class="er entityLabel">ManyToManyField</text><rect height="21" width="118.51171875" y="24" x="92.99681091308594" class="er attributeBoxOdd"/><text style="dominant-baseline: middle; font-size: 10.2px;" transform="translate(97.99681091308594,34.5)" y="0" x="0" id="text-entity-Form-a183b040-dd9d-4bbe-a566-63a0206349cb-attr-1-name" class="er entityLabel">projects</text><rect height="21" width="92.99681091308594" y="45" x="0" class="er attributeBoxEven"/><text style="dominant-baseline: middle; font-size: 10.2px;" transform="translate(5,55.5)" y="0" x="0" id="text-entity-Form-a183b040-dd9d-4bbe-a566-63a0206349cb-attr-2-type" class="er entityLabel">ForeignKey</text><rect height="21" width="118.51171875" y="45" x="92.99681091308594" class="er attributeBoxEven"/><text style="dominant-baseline: middle; font-size: 10.2px;" transform="translate(97.99681091308594,55.5)" y="0" x="0" id="text-entity-Form-a183b040-dd9d-4bbe-a566-63a0206349cb-attr-2-name" class="er entityLabel">orgunittype</text><rect height="21" width="92.99681091308594" y="66" x="0" class="er attributeBoxOdd"/><text style="dominant-baseline: middle; font-size: 10.2px;" transform="translate(5,76.5)" y="0" x="0" id="text-entity-Form-a183b040-dd9d-4bbe-a566-63a0206349cb-attr-3-type" class="er entityLabel">ForeignKey</text><rect height="21" width="118.51171875" y="66" x="92.99681091308594" class="er attributeBoxOdd"/><text style="dominant-baseline: middle; font-size: 10.2px;" transform="translate(97.99681091308594,76.5)" y="0" x="0" id="text-entity-Form-a183b040-dd9d-4bbe-a566-63a0206349cb-attr-3-name" class="er entityLabel">form_versions</text><rect height="21" width="92.99681091308594" y="87" x="0" class="er attributeBoxEven"/><text style="dominant-baseline: middle; font-size: 10.2px;" transform="translate(5,97.5)" y="0" x="0" id="text-entity-Form-a183b040-dd9d-4bbe-a566-63a0206349cb-attr-4-type" class="er entityLabel">ForeignKey</text><rect height="21" width="118.51171875" y="87" x="92.99681091308594" class="er attributeBoxEven"/><text style="dominant-baseline: middle; font-size: 10.2px;" transform="translate(97.99681091308594,97.5)" y="0" x="0" id="text-entity-Form-a183b040-dd9d-4bbe-a566-63a0206349cb-attr-4-name" class="er entityLabel">mapping</text><rect height="21" width="92.99681091308594" y="108" x="0" class="er attributeBoxOdd"/><text style="dominant-baseline: middle; font-size: 10.2px;" transform="translate(5,118.5)" y="0" x="0" id="text-entity-Form-a183b040-dd9d-4bbe-a566-63a0206349cb-attr-5-type" class="er entityLabel">ForeignKey</text><rect height="21" width="118.51171875" y="108" x="92.99681091308594" class="er attributeBoxOdd"/><text style="dominant-baseline: middle; font-size: 10.2px;" transform="translate(97.99681091308594,118.5)" y="0" x="0" id="text-entity-Form-a183b040-dd9d-4bbe-a566-63a0206349cb-attr-5-name" class="er entityLabel">instances</text><rect height="21" width="92.99681091308594" y="129" x="0" class="er attributeBoxEven"/><text style="dominant-baseline: middle; font-size: 10.2px;" transform="translate(5,139.5)" y="0" x="0" id="text-entity-Form-a183b040-dd9d-4bbe-a566-63a0206349cb-attr-6-type" class="er entityLabel">ManyToManyField</text><rect height="21" width="118.51171875" y="129" x="92.99681091308594" class="er attributeBoxEven"/><text style="dominant-baseline: middle; font-size: 10.2px;" transform="translate(97.99681091308594,139.5)" y="0" x="0" id="text-entity-Form-a183b040-dd9d-4bbe-a566-63a0206349cb-attr-6-name" class="er entityLabel">workflowfollowup</text><rect height="21" width="92.99681091308594" y="150" x="0" class="er attributeBoxOdd"/><text style="dominant-baseline: middle; font-size: 10.2px;" transform="translate(5,160.5)" y="0" x="0" id="text-entity-Form-a183b040-dd9d-4bbe-a566-63a0206349cb-attr-7-type" class="er entityLabel">ForeignKey</text><rect height="21" width="118.51171875" y="150" x="92.99681091308594" class="er attributeBoxOdd"/><text style="dominant-baseline: middle; font-size: 10.2px;" transform="translate(97.99681091308594,160.5)" y="0" x="0" id="text-entity-Form-a183b040-dd9d-4bbe-a566-63a0206349cb-attr-7-name" class="er entityLabel">workflowchange</text><rect height="21" width="92.99681091308594" y="171" x="0" class="er attributeBoxEven"/><text style="dominant-baseline: middle; font-size: 10.2px;" transform="translate(5,181.5)" y="0" x="0" id="text-entity-Form-a183b040-dd9d-4bbe-a566-63a0206349cb-attr-8-type" class="er entityLabel">ManyToManyField</text><rect height="21" width="118.51171875" y="171" x="92.99681091308594" class="er attributeBoxEven"/><text style="dominant-baseline: middle; font-size: 10.2px;" transform="translate(97.99681091308594,181.5)" y="0" x="0" id="text-entity-Form-a183b040-dd9d-4bbe-a566-63a0206349cb-attr-8-name" class="er entityLabel">teams</text><rect height="21" width="92.99681091308594" y="192" x="0" class="er attributeBoxOdd"/><text style="dominant-baseline: middle; font-size: 10.2px;" transform="translate(5,202.5)" y="0" x="0" id="text-entity-Form-a183b040-dd9d-4bbe-a566-63a0206349cb-attr-9-type" class="er entityLabel">AutoField</text><rect height="21" width="118.51171875" y="192" x="92.99681091308594" class="er attributeBoxOdd"/><text style="dominant-baseline: middle; font-size: 10.2px;" transform="translate(97.99681091308594,202.5)" y="0" x="0" id="text-entity-Form-a183b040-dd9d-4bbe-a566-63a0206349cb-attr-9-name" class="er entityLabel">id</text><rect height="21" width="92.99681091308594" y="213" x="0" class="er attributeBoxEven"/><text style="dominant-baseline: middle; font-size: 10.2px;" transform="translate(5,223.5)" y="0" x="0" id="text-entity-Form-a183b040-dd9d-4bbe-a566-63a0206349cb-attr-10-type" class="er entityLabel">DateTimeField</text><rect height="21" width="118.51171875" y="213" x="92.99681091308594" class="er attributeBoxEven"/><text style="dominant-baseline: middle; font-size: 10.2px;" transform="translate(97.99681091308594,223.5)" y="0" x="0" id="text-entity-Form-a183b040-dd9d-4bbe-a566-63a0206349cb-attr-10-name" class="er entityLabel">deleted_at</text><rect height="21" width="92.99681091308594" y="234" x="0" class="er attributeBoxOdd"/><text style="dominant-baseline: middle; font-size: 10.2px;" transform="translate(5,244.5)" y="0" x="0" id="text-entity-Form-a183b040-dd9d-4bbe-a566-63a0206349cb-attr-11-type" class="er entityLabel">TextField</text><rect height="21" width="118.51171875" y="234" x="92.99681091308594" class="er attributeBoxOdd"/><text style="dominant-baseline: middle; font-size: 10.2px;" transform="translate(97.99681091308594,244.5)" y="0" x="0" id="text-entity-Form-a183b040-dd9d-4bbe-a566-63a0206349cb-attr-11-name" class="er entityLabel">form_id</text><rect height="21" width="92.99681091308594" y="255" x="0" class="er attributeBoxEven"/><text style="dominant-baseline: middle; font-size: 10.2px;" transform="translate(5,265.5)" y="0" x="0" id="text-entity-Form-a183b040-dd9d-4bbe-a566-63a0206349cb-attr-12-type" class="er entityLabel">DateTimeField</text><rect height="21" width="118.51171875" y="255" x="92.99681091308594" class="er attributeBoxEven"/><text style="dominant-baseline: middle; font-size: 10.2px;" transform="translate(97.99681091308594,265.5)" y="0" x="0" id="text-entity-Form-a183b040-dd9d-4bbe-a566-63a0206349cb-attr-12-name" class="er entityLabel">created_at</text><rect height="21" width="92.99681091308594" y="276" x="0" class="er attributeBoxOdd"/><text style="dominant-baseline: middle; font-size: 10.2px;" transform="translate(5,286.5)" y="0" x="0" id="text-entity-Form-a183b040-dd9d-4bbe-a566-63a0206349cb-attr-13-type" class="er entityLabel">DateTimeField</text><rect height="21" width="118.51171875" y="276" x="92.99681091308594" class="er attributeBoxOdd"/><text style="dominant-baseline: middle; font-size: 10.2px;" transform="translate(97.99681091308594,286.5)" y="0" x="0" id="text-entity-Form-a183b040-dd9d-4bbe-a566-63a0206349cb-attr-13-name" class="er entityLabel">updated_at</text><rect height="21" width="92.99681091308594" y="297" x="0" class="er attributeBoxEven"/><text style="dominant-baseline: middle; font-size: 10.2px;" transform="translate(5,307.5)" y="0" x="0" id="text-entity-Form-a183b040-dd9d-4bbe-a566-63a0206349cb-attr-14-type" class="er entityLabel">TextField</text><rect height="21" width="118.51171875" y="297" x="92.99681091308594" class="er attributeBoxEven"/><text style="dominant-baseline: middle; font-size: 10.2px;" transform="translate(97.99681091308594,307.5)" y="0" x="0" id="text-entity-Form-a183b040-dd9d-4bbe-a566-63a0206349cb-attr-14-name" class="er entityLabel">name</text><rect height="21" width="92.99681091308594" y="318" x="0" class="er attributeBoxOdd"/><text style="dominant-baseline: middle; font-size: 10.2px;" transform="translate(5,328.5)" y="0" x="0" id="text-entity-Form-a183b040-dd9d-4bbe-a566-63a0206349cb-attr-15-type" class="er entityLabel">TextField</text><rect height="21" width="118.51171875" y="318" x="92.99681091308594" class="er attributeBoxOdd"/><text style="dominant-baseline: middle; font-size: 10.2px;" transform="translate(97.99681091308594,328.5)" y="0" x="0" id="text-entity-Form-a183b040-dd9d-4bbe-a566-63a0206349cb-attr-15-name" class="er entityLabel">device_field</text><rect height="21" width="92.99681091308594" y="339" x="0" class="er attributeBoxEven"/><text style="dominant-baseline: middle; font-size: 10.2px;" transform="translate(5,349.5)" y="0" x="0" id="text-entity-Form-a183b040-dd9d-4bbe-a566-63a0206349cb-attr-16-type" class="er entityLabel">TextField</text><rect height="21" width="118.51171875" y="339" x="92.99681091308594" class="er attributeBoxEven"/><text style="dominant-baseline: middle; font-size: 10.2px;" transform="translate(97.99681091308594,349.5)" y="0" x="0" id="text-entity-Form-a183b040-dd9d-4bbe-a566-63a0206349cb-attr-16-name" class="er entityLabel">location_field</text><rect height="21" width="92.99681091308594" y="360" x="0" class="er attributeBoxOdd"/><text style="dominant-baseline: middle; font-size: 10.2px;" transform="translate(5,370.5)" y="0" x="0" id="text-entity-Form-a183b040-dd9d-4bbe-a566-63a0206349cb-attr-17-type" class="er entityLabel">TextField</text><rect height="21" width="118.51171875" y="360" x="92.99681091308594" class="er attributeBoxOdd"/><text style="dominant-baseline: middle; font-size: 10.2px;" transform="translate(97.99681091308594,370.5)" y="0" x="0" id="text-entity-Form-a183b040-dd9d-4bbe-a566-63a0206349cb-attr-17-name" class="er entityLabel">correlation_field</text><rect height="21" width="92.99681091308594" y="381" x="0" class="er attributeBoxEven"/><text style="dominant-baseline: middle; font-size: 10.2px;" transform="translate(5,391.5)" y="0" x="0" id="text-entity-Form-a183b040-dd9d-4bbe-a566-63a0206349cb-attr-18-type" class="er entityLabel">BooleanField</text><rect height="21" width="118.51171875" y="381" x="92.99681091308594" class="er attributeBoxEven"/><text style="dominant-baseline: middle; font-size: 10.2px;" transform="translate(97.99681091308594,391.5)" y="0" x="0" id="text-entity-Form-a183b040-dd9d-4bbe-a566-63a0206349cb-attr-18-name" class="er entityLabel">correlatable</text><rect height="21" width="92.99681091308594" y="402" x="0" class="er attributeBoxOdd"/><text style="dominant-baseline: middle; font-size: 10.2px;" transform="translate(5,412.5)" y="0" x="0" id="text-entity-Form-a183b040-dd9d-4bbe-a566-63a0206349cb-attr-19-type" class="er entityLabel">JSONField</text><rect height="21" width="118.51171875" y="402" x="92.99681091308594" class="er attributeBoxOdd"/><text style="dominant-baseline: middle; font-size: 10.2px;" transform="translate(97.99681091308594,412.5)" y="0" x="0" id="text-entity-Form-a183b040-dd9d-4bbe-a566-63a0206349cb-attr-19-name" class="er entityLabel">possible_fields</text><rect height="21" width="92.99681091308594" y="423" x="0" class="er attributeBoxEven"/><text style="dominant-baseline: middle; font-size: 10.2px;" transform="translate(5,433.5)" y="0" x="0" id="text-entity-Form-a183b040-dd9d-4bbe-a566-63a0206349cb-attr-20-type" class="er entityLabel">TextField</text><rect height="21" width="118.51171875" y="423" x="92.99681091308594" class="er attributeBoxEven"/><text style="dominant-baseline: middle; font-size: 10.2px;" transform="translate(97.99681091308594,433.5)" y="0" x="0" id="text-entity-Form-a183b040-dd9d-4bbe-a566-63a0206349cb-attr-20-name" class="er entityLabel">period_type</text><rect height="21" width="92.99681091308594" y="444" x="0" class="er attributeBoxOdd"/><text style="dominant-baseline: middle; font-size: 10.2px;" transform="translate(5,454.5)" y="0" x="0" id="text-entity-Form-a183b040-dd9d-4bbe-a566-63a0206349cb-attr-21-type" class="er entityLabel">BooleanField</text><rect height="21" width="118.51171875" y="444" x="92.99681091308594" class="er attributeBoxOdd"/><text style="dominant-baseline: middle; font-size: 10.2px;" transform="translate(97.99681091308594,454.5)" y="0" x="0" id="text-entity-Form-a183b040-dd9d-4bbe-a566-63a0206349cb-attr-21-name" class="er entityLabel">single_per_period</text><rect height="21" width="92.99681091308594" y="465" x="0" class="er attributeBoxEven"/><text style="dominant-baseline: middle; font-size: 10.2px;" transform="translate(5,475.5)" y="0" x="0" id="text-entity-Form-a183b040-dd9d-4bbe-a566-63a0206349cb-attr-22-type" class="er entityLabel">IntegerField</text><rect height="21" width="118.51171875" y="465" x="92.99681091308594" class="er attributeBoxEven"/><text style="dominant-baseline: middle; font-size: 10.2px;" transform="translate(97.99681091308594,475.5)" y="0" x="0" id="text-entity-Form-a183b040-dd9d-4bbe-a566-63a0206349cb-attr-22-name" class="er entityLabel">periods_before_allowed</text><rect height="21" width="92.99681091308594" y="486" x="0" class="er attributeBoxOdd"/><text style="dominant-baseline: middle; font-size: 10.2px;" transform="translate(5,496.5)" y="0" x="0" id="text-entity-Form-a183b040-dd9d-4bbe-a566-63a0206349cb-attr-23-type" class="er entityLabel">IntegerField</text><rect height="21" width="118.51171875" y="486" x="92.99681091308594" class="er attributeBoxOdd"/><text style="dominant-baseline: middle; font-size: 10.2px;" transform="translate(97.99681091308594,496.5)" y="0" x="0" id="text-entity-Form-a183b040-dd9d-4bbe-a566-63a0206349cb-attr-23-name" class="er entityLabel">periods_after_allowed</text><rect height="21" width="92.99681091308594" y="507" x="0" class="er attributeBoxEven"/><text style="dominant-baseline: middle; font-size: 10.2px;" transform="translate(5,517.5)" y="0" x="0" id="text-entity-Form-a183b040-dd9d-4bbe-a566-63a0206349cb-attr-24-type" class="er entityLabel">BooleanField</text><rect height="21" width="118.51171875" y="507" x="92.99681091308594" class="er attributeBoxEven"/><text style="dominant-baseline: middle; font-size: 10.2px;" transform="translate(97.99681091308594,517.5)" y="0" x="0" id="text-entity-Form-a183b040-dd9d-4bbe-a566-63a0206349cb-attr-24-name" class="er entityLabel">derived</text><rect height="21" width="92.99681091308594" y="528" x="0" class="er attributeBoxOdd"/><text style="dominant-baseline: middle; font-size: 10.2px;" transform="translate(5,538.5)" y="0" x="0" id="text-entity-Form-a183b040-dd9d-4bbe-a566-63a0206349cb-attr-25-type" class="er entityLabel">UUIDField</text><rect height="21" width="118.51171875" y="528" x="92.99681091308594" class="er attributeBoxOdd"/><text style="dominant-baseline: middle; font-size: 10.2px;" transform="translate(97.99681091308594,538.5)" y="0" x="0" id="text-entity-Form-a183b040-dd9d-4bbe-a566-63a0206349cb-attr-25-name" class="er entityLabel">uuid</text><rect height="21" width="92.99681091308594" y="549" x="0" class="er attributeBoxEven"/><text style="dominant-baseline: middle; font-size: 10.2px;" transform="translate(5,559.5)" y="0" x="0" id="text-entity-Form-a183b040-dd9d-4bbe-a566-63a0206349cb-attr-26-type" class="er entityLabel">ArrayField</text><rect height="21" width="118.51171875" y="549" x="92.99681091308594" class="er attributeBoxEven"/><text style="dominant-baseline: middle; font-size: 10.2px;" transform="translate(97.99681091308594,559.5)" y="0" x="0" id="text-entity-Form-a183b040-dd9d-4bbe-a566-63a0206349cb-attr-26-name" class="er entityLabel">label_keys</text><rect height="21" width="92.99681091308594" y="570" x="0" class="er attributeBoxOdd"/><text style="dominant-baseline: middle; font-size: 10.2px;" transform="translate(5,580.5)" y="0" x="0" id="text-entity-Form-a183b040-dd9d-4bbe-a566-63a0206349cb-attr-27-type" class="er entityLabel">ManyToManyField</text><rect height="21" width="118.51171875" y="570" x="92.99681091308594" class="er attributeBoxOdd"/><text style="dominant-baseline: middle; font-size: 10.2px;" transform="translate(97.99681091308594,580.5)" y="0" x="0" id="text-entity-Form-a183b040-dd9d-4bbe-a566-63a0206349cb-attr-27-name" class="er entityLabel">org_unit_types</text></g><g transform="translate(31.365806579589844,711 )" id="entity-EntityType-41328118-84af-48b8-8e14-bcf02a212b9c"><rect height="213" width="188.77691650390625" y="0" x="0" class="er entityBox"/><text style="dominant-baseline: middle; text-anchor: middle; font-size: 12px;" transform="translate(94.38845825195312,12)" y="0" x="0" id="text-entity-EntityType-41328118-84af-48b8-8e14-bcf02a212b9c" class="er entityLabel">EntityType</text><rect height="21" width="76.1943359375" y="24" x="0" class="er attributeBoxOdd"/><text style="dominant-baseline: middle; font-size: 10.2px;" transform="translate(5,34.5)" y="0" x="0" id="text-entity-EntityType-41328118-84af-48b8-8e14-bcf02a212b9c-attr-1-type" class="er entityLabel">ForeignKey</text><rect height="21" width="112.58258056640625" y="24" x="76.1943359375" class="er attributeBoxOdd"/><text style="dominant-baseline: middle; font-size: 10.2px;" transform="translate(81.1943359375,34.5)" y="0" x="0" id="text-entity-EntityType-41328118-84af-48b8-8e14-bcf02a212b9c-attr-1-name" class="er entityLabel">entity</text><rect height="21" width="76.1943359375" y="45" x="0" class="er attributeBoxEven"/><text style="dominant-baseline: middle; font-size: 10.2px;" transform="translate(5,55.5)" y="0" x="0" id="text-entity-EntityType-41328118-84af-48b8-8e14-bcf02a212b9c-attr-2-type" class="er entityLabel">AutoField</text><rect height="21" width="112.58258056640625" y="45" x="76.1943359375" class="er attributeBoxEven"/><text style="dominant-baseline: middle; font-size: 10.2px;" transform="translate(81.1943359375,55.5)" y="0" x="0" id="text-entity-EntityType-41328118-84af-48b8-8e14-bcf02a212b9c-attr-2-name" class="er entityLabel">id</text><rect height="21" width="76.1943359375" y="66" x="0" class="er attributeBoxOdd"/><text style="dominant-baseline: middle; font-size: 10.2px;" transform="translate(5,76.5)" y="0" x="0" id="text-entity-EntityType-41328118-84af-48b8-8e14-bcf02a212b9c-attr-3-type" class="er entityLabel">CharField</text><rect height="21" width="112.58258056640625" y="66" x="76.1943359375" class="er attributeBoxOdd"/><text style="dominant-baseline: middle; font-size: 10.2px;" transform="translate(81.1943359375,76.5)" y="0" x="0" id="text-entity-EntityType-41328118-84af-48b8-8e14-bcf02a212b9c-attr-3-name" class="er entityLabel">name</text><rect height="21" width="76.1943359375" y="87" x="0" class="er attributeBoxEven"/><text style="dominant-baseline: middle; font-size: 10.2px;" transform="translate(5,97.5)" y="0" x="0" id="text-entity-EntityType-41328118-84af-48b8-8e14-bcf02a212b9c-attr-4-type" class="er entityLabel">DateTimeField</text><rect height="21" width="112.58258056640625" y="87" x="76.1943359375" class="er attributeBoxEven"/><text style="dominant-baseline: middle; font-size: 10.2px;" transform="translate(81.1943359375,97.5)" y="0" x="0" id="text-entity-EntityType-41328118-84af-48b8-8e14-bcf02a212b9c-attr-4-name" class="er entityLabel">created_at</text><rect height="21" width="76.1943359375" y="108" x="0" class="er attributeBoxOdd"/><text style="dominant-baseline: middle; font-size: 10.2px;" transform="translate(5,118.5)" y="0" x="0" id="text-entity-EntityType-41328118-84af-48b8-8e14-bcf02a212b9c-attr-5-type" class="er entityLabel">DateTimeField</text><rect height="21" width="112.58258056640625" y="108" x="76.1943359375" class="er attributeBoxOdd"/><text style="dominant-baseline: middle; font-size: 10.2px;" transform="translate(81.1943359375,118.5)" y="0" x="0" id="text-entity-EntityType-41328118-84af-48b8-8e14-bcf02a212b9c-attr-5-name" class="er entityLabel">updated_at</text><rect height="21" width="76.1943359375" y="129" x="0" class="er attributeBoxEven"/><text style="dominant-baseline: middle; font-size: 10.2px;" transform="translate(5,139.5)" y="0" x="0" id="text-entity-EntityType-41328118-84af-48b8-8e14-bcf02a212b9c-attr-6-type" class="er entityLabel">ForeignKey</text><rect height="21" width="112.58258056640625" y="129" x="76.1943359375" class="er attributeBoxEven"/><text style="dominant-baseline: middle; font-size: 10.2px;" transform="translate(81.1943359375,139.5)" y="0" x="0" id="text-entity-EntityType-41328118-84af-48b8-8e14-bcf02a212b9c-attr-6-name" class="er entityLabel">account</text><rect height="21" width="76.1943359375" y="150" x="0" class="er attributeBoxOdd"/><text style="dominant-baseline: middle; font-size: 10.2px;" transform="translate(5,160.5)" y="0" x="0" id="text-entity-EntityType-41328118-84af-48b8-8e14-bcf02a212b9c-attr-7-type" class="er entityLabel">BooleanField</text><rect height="21" width="112.58258056640625" y="150" x="76.1943359375" class="er attributeBoxOdd"/><text style="dominant-baseline: middle; font-size: 10.2px;" transform="translate(81.1943359375,160.5)" y="0" x="0" id="text-entity-EntityType-41328118-84af-48b8-8e14-bcf02a212b9c-attr-7-name" class="er entityLabel">is_active</text><rect height="21" width="76.1943359375" y="171" x="0" class="er attributeBoxEven"/><text style="dominant-baseline: middle; font-size: 10.2px;" transform="translate(5,181.5)" y="0" x="0" id="text-entity-EntityType-41328118-84af-48b8-8e14-bcf02a212b9c-attr-8-type" class="er entityLabel">ArrayField</text><rect height="21" width="112.58258056640625" y="171" x="76.1943359375" class="er attributeBoxEven"/><text style="dominant-baseline: middle; font-size: 10.2px;" transform="translate(81.1943359375,181.5)" y="0" x="0" id="text-entity-EntityType-41328118-84af-48b8-8e14-bcf02a212b9c-attr-8-name" class="er entityLabel">fields_list_view</text><rect height="21" width="76.1943359375" y="192" x="0" class="er attributeBoxOdd"/><text style="dominant-baseline: middle; font-size: 10.2px;" transform="translate(5,202.5)" y="0" x="0" id="text-entity-EntityType-41328118-84af-48b8-8e14-bcf02a212b9c-attr-9-type" class="er entityLabel">ArrayField</text><rect height="21" width="112.58258056640625" y="192" x="76.1943359375" class="er attributeBoxOdd"/><text style="dominant-baseline: middle; font-size: 10.2px;" transform="translate(81.1943359375,202.5)" y="0" x="0" id="text-entity-EntityType-41328118-84af-48b8-8e14-bcf02a212b9c-attr-9-name" class="er entityLabel">fields_detail_info_view</text></g><g transform="translate(57.07868194580078,1024 )" id="entity-Workflow-9900a1c3-4933-493b-8d27-2962f2851e30"><rect height="108" width="137.35116577148438" y="0" x="0" class="er entityBox"/><text style="dominant-baseline: middle; text-anchor: middle; font-size: 12px;" transform="translate(68.67558288574219,12)" y="0" x="0" id="text-entity-Workflow-9900a1c3-4933-493b-8d27-2962f2851e30" class="er entityLabel">Workflow</text><rect height="21" width="76.1943359375" y="24" x="0" class="er attributeBoxOdd"/><text style="dominant-baseline: middle; font-size: 10.2px;" transform="translate(5,34.5)" y="0" x="0" id="text-entity-Workflow-9900a1c3-4933-493b-8d27-2962f2851e30-attr-1-type" class="er entityLabel">AutoField</text><rect height="21" width="61.156829833984375" y="24" x="76.1943359375" class="er attributeBoxOdd"/><text style="dominant-baseline: middle; font-size: 10.2px;" transform="translate(81.1943359375,34.5)" y="0" x="0" id="text-entity-Workflow-9900a1c3-4933-493b-8d27-2962f2851e30-attr-1-name" class="er entityLabel">id</text><rect height="21" width="76.1943359375" y="45" x="0" class="er attributeBoxEven"/><text style="dominant-baseline: middle; font-size: 10.2px;" transform="translate(5,55.5)" y="0" x="0" id="text-entity-Workflow-9900a1c3-4933-493b-8d27-2962f2851e30-attr-2-type" class="er entityLabel">DateTimeField</text><rect height="21" width="61.156829833984375" y="45" x="76.1943359375" class="er attributeBoxEven"/><text style="dominant-baseline: middle; font-size: 10.2px;" transform="translate(81.1943359375,55.5)" y="0" x="0" id="text-entity-Workflow-9900a1c3-4933-493b-8d27-2962f2851e30-attr-2-name" class="er entityLabel">deleted_at</text><rect height="21" width="76.1943359375" y="66" x="0" class="er attributeBoxOdd"/><text style="dominant-baseline: middle; font-size: 10.2px;" transform="translate(5,76.5)" y="0" x="0" id="text-entity-Workflow-9900a1c3-4933-493b-8d27-2962f2851e30-attr-3-type" class="er entityLabel">DateTimeField</text><rect height="21" width="61.156829833984375" y="66" x="76.1943359375" class="er attributeBoxOdd"/><text style="dominant-baseline: middle; font-size: 10.2px;" transform="translate(81.1943359375,76.5)" y="0" x="0" id="text-entity-Workflow-9900a1c3-4933-493b-8d27-2962f2851e30-attr-3-name" class="er entityLabel">created_at</text><rect height="21" width="76.1943359375" y="87" x="0" class="er attributeBoxEven"/><text style="dominant-baseline: middle; font-size: 10.2px;" transform="translate(5,97.5)" y="0" x="0" id="text-entity-Workflow-9900a1c3-4933-493b-8d27-2962f2851e30-attr-4-type" class="er entityLabel">DateTimeField</text><rect height="21" width="61.156829833984375" y="87" x="76.1943359375" class="er attributeBoxEven"/><text style="dominant-baseline: middle; font-size: 10.2px;" transform="translate(81.1943359375,97.5)" y="0" x="0" id="text-entity-Workflow-9900a1c3-4933-493b-8d27-2962f2851e30-attr-4-name" class="er entityLabel">updated_at</text></g><g transform="translate(57.07868194580078,1232 )" id="entity-WorkflowVersion-c40dc6d6-e4d4-4079-a0b0-a93e349c0dcb"><rect height="192" width="137.35116577148438" y="0" x="0" class="er entityBox"/><text style="dominant-baseline: middle; text-anchor: middle; font-size: 12px;" transform="translate(68.67558288574219,12)" y="0" x="0" id="text-entity-WorkflowVersion-c40dc6d6-e4d4-4079-a0b0-a93e349c0dcb" class="er entityLabel">WorkflowVersion</text><rect height="21" width="76.1943359375" y="24" x="0" class="er attributeBoxOdd"/><text style="dominant-baseline: middle; font-size: 10.2px;" transform="translate(5,34.5)" y="0" x="0" id="text-entity-WorkflowVersion-c40dc6d6-e4d4-4079-a0b0-a93e349c0dcb-attr-1-type" class="er entityLabel">ForeignKey</text><rect height="21" width="61.156829833984375" y="24" x="76.1943359375" class="er attributeBoxOdd"/><text style="dominant-baseline: middle; font-size: 10.2px;" transform="translate(81.1943359375,34.5)" y="0" x="0" id="text-entity-WorkflowVersion-c40dc6d6-e4d4-4079-a0b0-a93e349c0dcb-attr-1-name" class="er entityLabel">follow_ups</text><rect height="21" width="76.1943359375" y="45" x="0" class="er attributeBoxEven"/><text style="dominant-baseline: middle; font-size: 10.2px;" transform="translate(5,55.5)" y="0" x="0" id="text-entity-WorkflowVersion-c40dc6d6-e4d4-4079-a0b0-a93e349c0dcb-attr-2-type" class="er entityLabel">ForeignKey</text><rect height="21" width="61.156829833984375" y="45" x="76.1943359375" class="er attributeBoxEven"/><text style="dominant-baseline: middle; font-size: 10.2px;" transform="translate(81.1943359375,55.5)" y="0" x="0" id="text-entity-WorkflowVersion-c40dc6d6-e4d4-4079-a0b0-a93e349c0dcb-attr-2-name" class="er entityLabel">changes</text><rect height="21" width="76.1943359375" y="66" x="0" class="er attributeBoxOdd"/><text style="dominant-baseline: middle; font-size: 10.2px;" transform="translate(5,76.5)" y="0" x="0" id="text-entity-WorkflowVersion-c40dc6d6-e4d4-4079-a0b0-a93e349c0dcb-attr-3-type" class="er entityLabel">AutoField</text><rect height="21" width="61.156829833984375" y="66" x="76.1943359375" class="er attributeBoxOdd"/><text style="dominant-baseline: middle; font-size: 10.2px;" transform="translate(81.1943359375,76.5)" y="0" x="0" id="text-entity-WorkflowVersion-c40dc6d6-e4d4-4079-a0b0-a93e349c0dcb-attr-3-name" class="er entityLabel">id</text><rect height="21" width="76.1943359375" y="87" x="0" class="er attributeBoxEven"/><text style="dominant-baseline: middle; font-size: 10.2px;" transform="translate(5,97.5)" y="0" x="0" id="text-entity-WorkflowVersion-c40dc6d6-e4d4-4079-a0b0-a93e349c0dcb-attr-4-type" class="er entityLabel">DateTimeField</text><rect height="21" width="61.156829833984375" y="87" x="76.1943359375" class="er attributeBoxEven"/><text style="dominant-baseline: middle; font-size: 10.2px;" transform="translate(81.1943359375,97.5)" y="0" x="0" id="text-entity-WorkflowVersion-c40dc6d6-e4d4-4079-a0b0-a93e349c0dcb-attr-4-name" class="er entityLabel">deleted_at</text><rect height="21" width="76.1943359375" y="108" x="0" class="er attributeBoxOdd"/><text style="dominant-baseline: middle; font-size: 10.2px;" transform="translate(5,118.5)" y="0" x="0" id="text-entity-WorkflowVersion-c40dc6d6-e4d4-4079-a0b0-a93e349c0dcb-attr-5-type" class="er entityLabel">CharField</text><rect height="21" width="61.156829833984375" y="108" x="76.1943359375" class="er attributeBoxOdd"/><text style="dominant-baseline: middle; font-size: 10.2px;" transform="translate(81.1943359375,118.5)" y="0" x="0" id="text-entity-WorkflowVersion-c40dc6d6-e4d4-4079-a0b0-a93e349c0dcb-attr-5-name" class="er entityLabel">name</text><rect height="21" width="76.1943359375" y="129" x="0" class="er attributeBoxEven"/><text style="dominant-baseline: middle; font-size: 10.2px;" transform="translate(5,139.5)" y="0" x="0" id="text-entity-WorkflowVersion-c40dc6d6-e4d4-4079-a0b0-a93e349c0dcb-attr-6-type" class="er entityLabel">CharField</text><rect height="21" width="61.156829833984375" y="129" x="76.1943359375" class="er attributeBoxEven"/><text style="dominant-baseline: middle; font-size: 10.2px;" transform="translate(81.1943359375,139.5)" y="0" x="0" id="text-entity-WorkflowVersion-c40dc6d6-e4d4-4079-a0b0-a93e349c0dcb-attr-6-name" class="er entityLabel">status</text><rect height="21" width="76.1943359375" y="150" x="0" class="er attributeBoxOdd"/><text style="dominant-baseline: middle; font-size: 10.2px;" transform="translate(5,160.5)" y="0" x="0" id="text-entity-WorkflowVersion-c40dc6d6-e4d4-4079-a0b0-a93e349c0dcb-attr-7-type" class="er entityLabel">DateTimeField</text><rect height="21" width="61.156829833984375" y="150" x="76.1943359375" class="er attributeBoxOdd"/><text style="dominant-baseline: middle; font-size: 10.2px;" transform="translate(81.1943359375,160.5)" y="0" x="0" id="text-entity-WorkflowVersion-c40dc6d6-e4d4-4079-a0b0-a93e349c0dcb-attr-7-name" class="er entityLabel">created_at</text><rect height="21" width="76.1943359375" y="171" x="0" class="er attributeBoxEven"/><text style="dominant-baseline: middle; font-size: 10.2px;" transform="translate(5,181.5)" y="0" x="0" id="text-entity-WorkflowVersion-c40dc6d6-e4d4-4079-a0b0-a93e349c0dcb-attr-8-type" class="er entityLabel">DateTimeField</text><rect height="21" width="61.156829833984375" y="171" x="76.1943359375" class="er attributeBoxEven"/><text style="dominant-baseline: middle; font-size: 10.2px;" transform="translate(81.1943359375,181.5)" y="0" x="0" id="text-entity-WorkflowVersion-c40dc6d6-e4d4-4079-a0b0-a93e349c0dcb-attr-8-name" class="er entityLabel">updated_at</text></g><rect height="14" width="51.689453125" y="654.6586303710938" x="53.837852478027344" class="er relationshipLabelBox"/><text style="text-anchor: middle; dominant-baseline: middle; font-size: 12px;" y="661.6586303710938" x="79.68257904052734" id="rel1" class="er relationshipLabel">entitytype</text><rect height="14" width="86.359375" y="898.5928955078125" x="-114.6196517944336" class="er relationshipLabelBox"/><text style="text-anchor: middle; dominant-baseline: middle; font-size: 12px;" y="905.5928955078125" x="-71.4399642944336" id="rel2" class="er relationshipLabel">workflowversion</text><rect height="14" width="48.009765625" y="968.0137939453125" x="58.50836944580078" class="er relationshipLabelBox"/><text style="text-anchor: middle; dominant-baseline: middle; font-size: 12px;" y="975.0137939453125" x="82.51325225830078" id="rel3" class="er relationshipLabel">workflow</text><rect height="14" width="81.375" y="654.6586303710938" x="131.13845825195312" class="er relationshipLabelBox"/><text style="text-anchor: middle; dominant-baseline: middle; font-size: 12px;" y="661.6586303710938" x="171.82595825195312" id="rel4" class="er relationshipLabel">reference_form</text><rect height="14" width="99.046875" y="1174.106689453125" x="33.15965270996094" class="er relationshipLabelBox"/><text style="text-anchor: middle; dominant-baseline: middle; font-size: 12px;" y="1181.106689453125" x="82.68309020996094" id="rel5" class="er relationshipLabel">workflow_versions</text><rect height="14" width="58.36328125" y="968.0137939453125" x="139.8136444091797" class="er relationshipLabelBox"/><text style="text-anchor: middle; dominant-baseline: middle; font-size: 12px;" y="975.0137939453125" x="168.9952850341797" id="rel6" class="er relationshipLabel">entity_type</text><rect height="14" width="48.009765625" y="1174.106689453125" x="144.82054138183594" class="er relationshipLabelBox"/><text style="text-anchor: middle; dominant-baseline: middle; font-size: 12px;" y="1181.106689453125" x="168.82542419433594" id="rel7" class="er relationshipLabel">workflow</text><rect height="14" width="81.375" y="898.5928955078125" x="282.260986328125" class="er relationshipLabelBox"/><text style="text-anchor: middle; dominant-baseline: middle; font-size: 12px;" y="905.5928955078125" x="322.948486328125" id="rel8" class="er relationshipLabel">reference_form</text></svg>